<?xml version="1.1" encoding="UTF-8"?>
<svg xmlns="http://www.w3.org/2000/svg"
    xmlns:latexdraw="http://latexdraw.sourceforge.net/namespaces/latexdraw"
    version="1.1" baseProfile="full">
    <g>
        <g latexdraw:type="rectangle" id="id699432508">
            <rect x="334.4999999999999" y="114.49999999999989"
                width="151.00000000000006" height="331.0000000000002"
                latexdraw:borderPos="inner" stroke-width="11.0"
                stroke="black" fill="url(#pattern699432508)"/>
            <rect x="334.4999999999999" y="114.49999999999989"
                width="151.00000000000006" height="331.0000000000002"
                stroke="white" stroke-width="7.0" fill="none" latexdraw:type="dbleborders"/>
        </g>
        <g latexdraw:type="circle" id="id481674353">
            <circle cx="409.9999999999999" cy="270.0" r="11.9"
                latexdraw:borderPos="inner"
                stroke-width="3.8000000000000003" stroke="black" fill="white"/>
        </g>
        <g latexdraw:type="rectangle" id="id1053113610">
            <rect x="339.9999999999999" y="119.99999999999989"
                width="140.00000000000006" height="80.00000000000006"
                latexdraw:borderPos="middle" stroke-width="0.1"
                stroke="black" fill="white"/>
        </g>
        <g latexdraw:type="circle" id="id495903756">
            <circle cx="409.9999999999999" cy="330.0" r="11.9"
                latexdraw:borderPos="inner"
                stroke-width="3.8000000000000003" stroke="black" fill="white"/>
        </g>
        <g latexdraw:type="circle" id="id929376287">
            <circle cx="409.9999999999999" cy="390.0000000000001"
                r="11.9" latexdraw:borderPos="inner"
                stroke-width="3.8000000000000003" stroke="black" fill="white"/>
        </g>
        <g latexdraw:type="joinedLines" id="id96597198">
            <polyline
                points="271.99999999999983,448.0000000000001 268.30241716484414,108.0005716029267 "
                stroke-width="2.1999999999999997" stroke="black"
                latexdraw:rotationAngle="0.0"
                marker-start="url(#arrow0-96597198)" marker-end="url(#arrow1-96597198)"/>
        </g>
        <g latexdraw:type="text" id="id310096913" fill="black"
            latexdraw:position="b" transform="rotate(272.4895529219991) translate(-524.7857684552075 -19.901676400053873)">
            <text x="252.0" y="283.9999999999997">25 cm</text>
        </g>
        <g latexdraw:type="joinedLines" id="id2017430742">
            <polyline
                points="403.9999999999999,268.0 435.9999999999999,268.0 "
                stroke-width="3.8000000000000003" stroke="black" latexdraw:rotationAngle="0.0"/>
        </g>
        <g latexdraw:type="rectangle" id="id1711568414">
            <rect x="434.0999999999999" y="258.1000000000001"
                width="67.80000000000005" height="19.8"
                latexdraw:borderPos="inner"
                stroke-width="3.8000000000000003" stroke="black" fill="white"/>
        </g>
        <g latexdraw:type="rectangle" id="id1818859924">
            <rect x="474.09999999999997" y="258.1000000000001"
                width="51.800000000000054" height="19.8"
                latexdraw:borderPos="inner"
                stroke-width="3.8000000000000003" stroke="black"
                fill="#3333ff" rx="0.12012499999999997"/>
        </g>
        <g latexdraw:type="rectangle" id="id603812660">
            <rect x="330.4999999999999" y="441.5000000000001"
                width="160.00000000000006" height="11.0"
                latexdraw:borderPos="inner" stroke-width="3.0"
                stroke="#00cccc" fill="url(#pattern603812660)"/>
        </g>
        <g latexdraw:type="joinedLines" id="id656413345">
            <polyline
                points="411.9999999999999,19.99999999999983 411.9999999999999,89.99999999999986 "
                stroke-width="3.8000000000000003" stroke="black"
                latexdraw:rotationAngle="0.0" marker-end="url(#arrow1-656413345)"/>
        </g>
        <g latexdraw:type="joinedLines" id="id1657877725">
            <polyline
                points="411.9999999999999,475.0000000000001 411.9999999999999,545.0000000000002 "
                stroke-width="3.8000000000000003" stroke="black"
                latexdraw:rotationAngle="0.0" marker-end="url(#arrow1-1657877725)"/>
        </g>
        <g latexdraw:type="text" id="id1112847402" fill="black" latexdraw:position="bl">
            <text x="552.0" y="61.99999999999986">Inlet water</text>
        </g>
        <g latexdraw:type="text" id="id184032135" fill="black" latexdraw:position="bl">
            <text x="552.0" y="229.99999999999997">Olivine powder</text>
        </g>
        <g latexdraw:type="text" id="id770356579" fill="black" latexdraw:position="bl">
            <text x="552.0" y="272.0">Rhizon</text>
        </g>
        <g latexdraw:type="text" id="id1190530015" fill="black" latexdraw:position="bl">
            <text x="559.0" y="454.0000000000001">Nylon Mesh</text>
        </g>
        <g latexdraw:type="text" id="id560202447" fill="black" latexdraw:position="bl">
            <text x="559.0" y="510.0000000000001">Outlet water</text>
        </g>
        <g latexdraw:type="akinPoints" id="id277540358"
            latexdraw:pathType="CURVES" latexdraw:interval="5" latexdraw:points="475.0 223.0 ">
            <path d="M 475.0 223.0 " stroke-width="2.0" stroke="black"
                fill="none" latexdraw:rotationAngle="0.0"/>
        </g>
        <g latexdraw:type="akinPoints" id="id1336995995"
            latexdraw:pathType="CURVES" latexdraw:interval="5" latexdraw:points="461.0 223.0 ">
            <path d="M 461.0 223.0 " stroke-width="2.0" stroke="black"
                fill="none" latexdraw:rotationAngle="0.0"/>
        </g>
        <g latexdraw:type="akinPoints" id="id2093278190"
            latexdraw:pathType="CURVES" latexdraw:interval="5" latexdraw:points="468.0 223.0 ">
            <path d="M 468.0 223.0 " stroke-width="2.0" stroke="black"
                fill="none" latexdraw:rotationAngle="0.0"/>
        </g>
        <g latexdraw:type="akinPoints" id="id1413499917"
            latexdraw:pathType="CURVES" latexdraw:interval="5" latexdraw:points="461.0 223.0 552.0 216.0 ">
            <path d="M 461.0 223.0 " stroke-width="2.0" stroke="black"
                fill="none" latexdraw:rotationAngle="0.0"/>
        </g>
        <g latexdraw:type="joinedLines" id="id1200636826">
            <polyline points="454.0,223.0 545.0,223.0 545.0,223.0 "
                stroke-width="2.0" stroke="black" fill="none"
                latexdraw:rotationAngle="0.0" marker-end="url(#arrow1-1200636826)"/>
        </g>
        <g latexdraw:type="joinedLines" id="id836210369">
            <polyline points="489.0,265.0 545.0,265.0 "
                stroke-width="2.0" stroke="black"
                latexdraw:rotationAngle="0.0" marker-end="url(#arrow1-836210369)"/>
        </g>
        <g latexdraw:type="joinedLines" id="id1933484227">
            <polyline points="454.0,447.0 552.0,447.0 "
                stroke-width="2.0" stroke="black"
                latexdraw:rotationAngle="0.0" marker-end="url(#arrow1-1933484227)"/>
        </g>
    </g>
    <defs>
        <pattern latexdraw:type="hlines*"
            latexdraw:rotationAngle="0.5235987755982988"
            latexdraw:size="7.055555555555555"
            patternUnits="userSpaceOnUse" id="pattern699432508" x="0"
            y="0" width="490" height="451">
            <rect width="490" height="451" fill="#77933f" stroke="none"/>
            <g stroke="black" stroke-width="0.1" stroke-dasharray="none">
                <path d="M 328.9999999999999 442.7374761475975 L 343.311111111111 451.0000000000001 M 328.9999999999999 434.47495229519484 L 357.62222222222215 451.0000000000001 M 328.9999999999999 426.2124284427922 L 371.9333333333333 451.0000000000001 M 328.9999999999999 417.94990459038956 L 386.2444444444444 451.0000000000001 M 328.9999999999999 409.6873807379869 L 400.55555555555554 451.0000000000001 M 328.9999999999999 401.4248568855843 L 414.8666666666667 451.0000000000001 M 328.9999999999999 393.16233303318165 L 429.1777777777778 451.0000000000001 M 328.9999999999999 384.899809180779 L 443.48888888888894 451.0000000000001 M 328.9999999999999 376.6372853283764 L 457.80000000000007 451.0000000000001 M 328.9999999999999 368.37476147597374 L 472.1111111111112 451.0000000000001 M 328.9999999999999 360.1122376235711 L 486.42222222222233 451.0000000000001 M 328.9999999999999 351.84971377116847 L 500.73333333333346 451.0000000000001 M 328.9999999999999 343.58718991876583 L 515.0444444444446 451.0000000000001 M 328.9999999999999 335.3246660663632 L 529.3555555555557 451.0000000000001 M 328.9999999999999 327.06214221396056 L 543.6666666666669 451.0000000000001 M 328.9999999999999 318.7996183615579 L 557.977777777778 451.0000000000001 M 328.9999999999999 310.5370945091553 L 572.2888888888891 451.0000000000001 M 328.9999999999999 302.27457065675264 L 586.6000000000003 451.0000000000001 M 328.9999999999999 294.01204680435 L 600.9111111111114 451.0000000000001 M 328.9999999999999 285.74952295194737 L 615.2222222222225 451.0000000000001 M 328.9999999999999 277.48699909954473 L 629.5333333333336 451.0000000000001 M 328.9999999999999 269.2244752471421 L 643.8444444444448 451.0000000000001 M 328.9999999999999 260.96195139473946 L 658.1555555555559 451.0000000000001 M 328.9999999999999 252.69942754233682 L 672.466666666667 451.0000000000001 M 328.9999999999999 244.43690368993418 L 686.7777777777782 451.0000000000001 M 328.9999999999999 236.17437983753155 L 701.0888888888893 451.0000000000001 M 328.9999999999999 227.9118559851289 L 715.4000000000004 451.0000000000001 M 328.9999999999999 219.64933213272627 L 729.7111111111116 451.0000000000001 M 328.9999999999999 211.38680828032363 L 744.0222222222227 451.0000000000001 M 328.9999999999999 203.124284427921 L 758.3333333333338 451.0000000000001 M 328.9999999999999 194.86176057551836 L 772.644444444445 451.0000000000001 M 328.9999999999999 186.59923672311572 L 786.9555555555561 451.0000000000001 M 328.9999999999999 178.3367128707131 L 801.2666666666672 451.0000000000001 M 328.9999999999999 170.07418901831045 L 815.5777777777784 451.0000000000001 M 328.9999999999999 161.8116651659078 L 829.8888888888895 451.0000000000001 M 328.9999999999999 153.54914131350517 L 844.2000000000006 451.0000000000001 M 328.9999999999999 145.28661746110254 L 858.5111111111117 451.0000000000001 M 328.9999999999999 137.0240936086999 L 872.8222222222229 451.0000000000001 M 328.9999999999999 128.76156975629726 L 887.133333333334 451.0000000000001 M 328.9999999999999 120.49904590389463 L 901.4444444444451 451.0000000000001 M 328.9999999999999 112.23652205149199 L 915.7555555555563 451.0000000000001 M 328.9999999999999 103.97399819908935 L 930.0666666666674 451.0000000000001 M 328.9999999999999 95.71147434668671 L 944.3777777777785 451.0000000000001 M 328.9999999999999 87.44895049428408 L 958.6888888888897 451.0000000000001 M 328.9999999999999 79.18642664188144 L 973.0000000000008 451.0000000000001 M 328.9999999999999 70.9239027894788 L 987.3111111111119 451.0000000000001 M 328.9999999999999 62.66137893707616 L 1001.6222222222231 451.0000000000001 M 328.9999999999999 54.398855084673514 L 1015.9333333333342 451.0000000000001 M 328.9999999999999 46.13633123227087 L 1030.2444444444452 451.0000000000001 M 328.9999999999999 37.873807379868225 L 1044.5555555555563 451.0000000000001 M 328.9999999999999 29.61128352746558 L 1058.8666666666675 451.0000000000001 M 328.9999999999999 21.348759675062936 L 1073.1777777777786 451.0000000000001 M 328.9999999999999 13.086235822660294 L 1087.4888888888897 451.0000000000001 M 328.9999999999999 4.823711970257651 L 1101.8000000000009 451.0000000000001 M 328.9999999999999 -3.438811882144991 L 1116.111111111112 451.0000000000001 M 328.9999999999999 -11.701335734547634 L 1130.4222222222231 451.0000000000001 M 328.9999999999999 -19.963859586950278 L 1144.7333333333343 451.0000000000001 M 328.9999999999999 -28.226383439352922 L 1159.0444444444454 451.0000000000001 M 328.9999999999999 -36.48890729175557 L 1173.3555555555565 451.0000000000001 M 328.9999999999999 -44.75143114415821 L 1187.6666666666677 451.0000000000001 M 328.9999999999999 -53.013954996560855 L 1201.9777777777788 451.0000000000001 M 328.9999999999999 -61.2764788489635 L 1216.28888888889 451.0000000000001 M 328.9999999999999 -69.53900270136614 L 1230.600000000001 451.0000000000001 M 328.9999999999999 -77.80152655376878 L 1244.9111111111122 451.0000000000001 M 328.9999999999999 -86.06405040617142 L 1259.2222222222233 451.0000000000001 M 328.9999999999999 -94.32657425857406 L 1273.5333333333344 451.0000000000001 "/>
            </g>
        </pattern>
        <marker overflow="visible" orient="auto" id="arrow0-96597198">
            <path
                d="M 0.0 -3.3017676767676765 L 0.0 3.3017676767676765 "
                latexdraw:tbarSizeNum="5.0" stroke="black" fill="none" stroke-width="1.0"/>
        </marker>
        <marker overflow="visible" orient="auto" id="arrow1-96597198">
            <path
                d="M 0.0 -3.3017676767676765 L 0.0 3.3017676767676765 "
                latexdraw:tbarSizeNum="5.0" stroke="black" fill="none" stroke-width="1.0"/>
        </marker>
        <pattern latexdraw:type="vlines*"
            latexdraw:rotationAngle="0.5235987755982988"
            latexdraw:size="3.06" patternUnits="userSpaceOnUse"
            id="pattern603812660" x="0" y="0" width="491" height="454">
            <rect width="491" height="454" fill="white" stroke="none"/>
            <g stroke="cyan" stroke-width="0.1" stroke-dasharray="none">
                <path d="M 328.9999999999999 446.3200000000001 L 332.6488537012783 440.0000000000001 M 328.9999999999999 452.6400000000001 L 336.29770740255674 440.0000000000001 M 328.9999999999999 458.9600000000001 L 339.94656110383517 440.0000000000001 M 328.9999999999999 465.2800000000001 L 343.5954148051136 440.0000000000001 M 328.9999999999999 471.6000000000001 L 347.244268506392 440.0000000000001 M 328.9999999999999 477.9200000000001 L 350.89312220767044 440.0000000000001 M 328.9999999999999 484.24000000000007 L 354.54197590894887 440.0000000000001 M 328.9999999999999 490.56000000000006 L 358.1908296102273 440.0000000000001 M 328.9999999999999 496.88000000000005 L 361.8396833115057 440.0000000000001 M 328.9999999999999 503.20000000000005 L 365.48853701278415 440.0000000000001 M 328.9999999999999 509.52000000000004 L 369.1373907140626 440.0000000000001 M 328.9999999999999 515.84 L 372.786244415341 440.0000000000001 M 328.9999999999999 522.1600000000001 L 376.43509811661943 440.0000000000001 M 328.9999999999999 528.4800000000001 L 380.08395181789786 440.0000000000001 M 328.9999999999999 534.8000000000002 L 383.7328055191763 440.0000000000001 M 328.9999999999999 541.1200000000002 L 387.3816592204547 440.0000000000001 M 328.9999999999999 547.4400000000003 L 391.03051292173313 440.0000000000001 M 328.9999999999999 553.7600000000003 L 394.67936662301156 440.0000000000001 M 328.9999999999999 560.0800000000004 L 398.32822032429 440.0000000000001 M 328.9999999999999 566.4000000000004 L 401.9770740255684 440.0000000000001 M 328.9999999999999 572.7200000000005 L 405.62592772684684 440.0000000000001 M 328.9999999999999 579.0400000000005 L 409.27478142812527 440.0000000000001 M 328.9999999999999 585.3600000000006 L 412.9236351294037 440.0000000000001 M 328.9999999999999 591.6800000000006 L 416.5724888306821 440.0000000000001 M 328.9999999999999 598.0000000000007 L 420.22134253196054 440.0000000000001 M 328.9999999999999 604.3200000000007 L 423.87019623323897 440.0000000000001 M 328.9999999999999 610.6400000000008 L 427.5190499345174 440.0000000000001 M 328.9999999999999 616.9600000000008 L 431.1679036357958 440.0000000000001 M 328.9999999999999 623.2800000000009 L 434.81675733707425 440.0000000000001 M 328.9999999999999 629.6000000000009 L 438.4656110383527 440.0000000000001 M 328.9999999999999 635.920000000001 L 442.1144647396311 440.0000000000001 M 328.9999999999999 642.240000000001 L 445.76331844090953 440.0000000000001 M 328.9999999999999 648.5600000000011 L 449.41217214218796 440.0000000000001 M 328.9999999999999 654.8800000000011 L 453.0610258434664 440.0000000000001 M 328.9999999999999 661.2000000000012 L 456.7098795447448 440.0000000000001 M 328.9999999999999 667.5200000000012 L 460.35873324602323 440.0000000000001 M 328.9999999999999 673.8400000000013 L 464.00758694730166 440.0000000000001 M 328.9999999999999 680.1600000000013 L 467.6564406485801 440.0000000000001 M 328.9999999999999 686.4800000000014 L 471.3052943498585 440.0000000000001 M 328.9999999999999 692.8000000000014 L 474.95414805113694 440.0000000000001 M 328.9999999999999 699.1200000000015 L 478.60300175241537 440.0000000000001 M 328.9999999999999 705.4400000000015 L 482.2518554536938 440.0000000000001 M 328.9999999999999 711.7600000000016 L 485.9007091549722 440.0000000000001 M 328.9999999999999 718.0800000000016 L 489.54956285625065 440.0000000000001 M 328.9999999999999 724.4000000000017 L 493.1984165575291 440.0000000000001 M 328.9999999999999 730.7200000000017 L 496.8472702588075 440.0000000000001 M 328.9999999999999 737.0400000000018 L 500.4961239600859 440.0000000000001 M 328.9999999999999 743.3600000000018 L 504.14497766136435 440.0000000000001 M 328.9999999999999 749.6800000000019 L 507.7938313626428 440.0000000000001 M 328.9999999999999 756.0000000000019 L 511.4426850639212 440.0000000000001 M 328.9999999999999 762.320000000002 L 515.0915387651996 440.0000000000001 M 328.9999999999999 768.640000000002 L 518.740392466478 440.0000000000001 M 328.9999999999999 774.9600000000021 L 522.3892461677565 440.0000000000001 M 328.9999999999999 781.2800000000021 L 526.0380998690349 440.0000000000001 M 328.9999999999999 787.6000000000022 L 529.6869535703133 440.0000000000001 M 328.9999999999999 793.9200000000022 L 533.3358072715918 440.0000000000001 M 328.9999999999999 800.2400000000023 L 536.9846609728702 440.0000000000001 M 328.9999999999999 806.5600000000023 L 540.6335146741486 440.0000000000001 M 328.9999999999999 812.8800000000024 L 544.282368375427 440.0000000000001 M 328.9999999999999 819.2000000000024 L 547.9312220767055 440.0000000000001 M 328.9999999999999 825.5200000000025 L 551.5800757779839 440.0000000000001 M 328.9999999999999 831.8400000000025 L 555.2289294792623 440.0000000000001 M 328.9999999999999 838.1600000000026 L 558.8777831805407 440.0000000000001 M 328.9999999999999 844.4800000000026 L 562.5266368818192 440.0000000000001 M 328.9999999999999 850.8000000000027 L 566.1754905830976 440.0000000000001 M 328.9999999999999 857.1200000000027 L 569.824344284376 440.0000000000001 M 328.9999999999999 863.4400000000028 L 573.4731979856545 440.0000000000001 M 328.9999999999999 869.7600000000028 L 577.1220516869329 440.0000000000001 M 328.9999999999999 876.0800000000029 L 580.7709053882113 440.0000000000001 M 328.9999999999999 882.4000000000029 L 584.4197590894897 440.0000000000001 M 328.9999999999999 888.720000000003 L 588.0686127907682 440.0000000000001 M 328.9999999999999 895.040000000003 L 591.7174664920466 440.0000000000001 M 328.9999999999999 901.3600000000031 L 595.366320193325 440.0000000000001 M 328.9999999999999 907.6800000000031 L 599.0151738946034 440.0000000000001 M 328.9999999999999 914.0000000000032 L 602.6640275958819 440.0000000000001 M 328.9999999999999 920.3200000000032 L 606.3128812971603 440.0000000000001 M 328.9999999999999 926.6400000000033 L 609.9617349984387 440.0000000000001 M 328.9999999999999 932.9600000000033 L 613.6105886997171 440.0000000000001 M 328.9999999999999 939.2800000000034 L 617.2594424009956 440.0000000000001 M 328.9999999999999 945.6000000000034 L 620.908296102274 440.0000000000001 M 328.9999999999999 951.9200000000035 L 624.5571498035524 440.0000000000001 M 328.9999999999999 958.2400000000035 L 628.2060035048308 440.0000000000001 M 328.9999999999999 964.5600000000036 L 631.8548572061093 440.0000000000001 M 328.9999999999999 970.8800000000036 L 635.5037109073877 440.0000000000001 M 328.9999999999999 977.2000000000037 L 639.1525646086661 440.0000000000001 M 328.9999999999999 983.5200000000037 L 642.8014183099446 440.0000000000001 M 328.9999999999999 989.8400000000038 L 646.450272011223 440.0000000000001 M 328.9999999999999 996.1600000000038 L 650.0991257125014 440.0000000000001 M 328.9999999999999 1002.4800000000039 L 653.7479794137798 440.0000000000001 M 328.9999999999999 1008.8000000000039 L 657.3968331150583 440.0000000000001 M 328.9999999999999 1015.120000000004 L 661.0456868163367 440.0000000000001 M 328.9999999999999 1021.440000000004 L 664.6945405176151 440.0000000000001 M 328.9999999999999 1027.760000000004 L 668.3433942188935 440.0000000000001 M 328.9999999999999 1034.080000000004 L 671.992247920172 440.0000000000001 M 328.9999999999999 1040.400000000004 L 675.6411016214504 440.0000000000001 M 328.9999999999999 1046.720000000004 L 679.2899553227288 440.0000000000001 M 328.9999999999999 1053.0400000000038 L 682.9388090240072 440.0000000000001 M 328.9999999999999 1059.3600000000038 L 686.5876627252857 440.0000000000001 M 328.9999999999999 1065.6800000000037 L 690.2365164265641 440.0000000000001 M 328.9999999999999 1072.0000000000036 L 693.8853701278425 440.0000000000001 M 328.9999999999999 1078.3200000000036 L 697.534223829121 440.0000000000001 M 328.9999999999999 1084.6400000000035 L 701.1830775303994 440.0000000000001 M 328.9999999999999 1090.9600000000034 L 704.8319312316778 440.0000000000001 M 328.9999999999999 1097.2800000000034 L 708.4807849329562 440.0000000000001 M 328.9999999999999 1103.6000000000033 L 712.1296386342347 440.0000000000001 M 328.9999999999999 1109.9200000000033 L 715.7784923355131 440.0000000000001 M 328.9999999999999 1116.2400000000032 L 719.4273460367915 440.0000000000001 M 328.9999999999999 1122.5600000000031 L 723.0761997380699 440.0000000000001 M 328.9999999999999 1128.880000000003 L 726.7250534393484 440.0000000000001 M 328.9999999999999 1135.200000000003 L 730.3739071406268 440.0000000000001 M 328.9999999999999 1141.520000000003 L 734.0227608419052 440.0000000000001 M 328.9999999999999 1147.8400000000029 L 737.6716145431836 440.0000000000001 M 328.9999999999999 1154.1600000000028 L 741.3204682444621 440.0000000000001 M 328.9999999999999 1160.4800000000027 L 744.9693219457405 440.0000000000001 M 328.9999999999999 1166.8000000000027 L 748.6181756470189 440.0000000000001 M 328.9999999999999 1173.1200000000026 L 752.2670293482973 440.0000000000001 M 328.9999999999999 1179.4400000000026 L 755.9158830495758 440.0000000000001 "/>
            </g>
        </pattern>
        <marker overflow="visible" orient="auto" id="arrow1-656413345">
            <path
                d="M 0.0 0.0 L -3.7747807017543855 1.3481359649122806 L -3.7747807017543855 0.0 L -3.7747807017543855 -1.3481359649122806 z "
                latexdraw:arrSizeNum="2.0" fill="black"/>
        </marker>
        <marker overflow="visible" orient="auto" id="arrow1-1657877725">
            <path
                d="M 0.0 0.0 L -3.7747807017543855 1.3481359649122806 L -3.7747807017543855 0.0 L -3.7747807017543855 -1.3481359649122806 z "
                latexdraw:arrSizeNum="2.0" fill="black"/>
        </marker>
        <marker overflow="visible" orient="auto" id="arrow1-1200636826">
            <path
                d="M 0.0 0.0 L -4.526083333333333 1.6164583333333333 L -4.526083333333333 0.0 L -4.526083333333333 -1.6164583333333333 z "
                latexdraw:arrSizeNum="1.91" fill="black"/>
        </marker>
        <marker overflow="visible" orient="auto" id="arrow1-836210369">
            <path
                d="M 0.0 0.0 L -4.526083333333333 1.6164583333333333 L -4.526083333333333 0.0 L -4.526083333333333 -1.6164583333333333 z "
                latexdraw:arrSizeNum="1.91" fill="black"/>
        </marker>
        <marker overflow="visible" orient="auto" id="arrow1-1933484227">
            <path
                d="M 0.0 0.0 L -4.526083333333333 1.6164583333333333 L -4.526083333333333 0.0 L -4.526083333333333 -1.6164583333333333 z "
                latexdraw:arrSizeNum="1.91" fill="black"/>
        </marker>
    </defs>
    <metadata>
        <latexdraw:metadata>
            <latexdraw:latexIncludes>\usepackage{mathptmx}
	

</latexdraw:latexIncludes>
            <latexdraw:displayXScale>true</latexdraw:displayXScale>
            <latexdraw:displayYScale>true</latexdraw:displayYScale>
            <latexdraw:unit>CM</latexdraw:unit>
            <latexdraw:zoom>1.0</latexdraw:zoom>
            <latexdraw:magneticGridStyle>CUSTOMISED</latexdraw:magneticGridStyle>
            <latexdraw:gridGap>7</latexdraw:gridGap>
            <latexdraw:magneticGrid>true</latexdraw:magneticGrid>
            <latexdraw:version>3.3.4</latexdraw:version>
            <latexdraw:size>
                <latexdraw:width>1440</latexdraw:width>
                <latexdraw:height>810</latexdraw:height>
            </latexdraw:size>
            <latexdraw:position>
                <latexdraw:x>165.0</latexdraw:x>
                <latexdraw:y>99.0</latexdraw:y>
            </latexdraw:position>
        </latexdraw:metadata>
    </metadata>
</svg>
